<!--?xml version="1.0" encoding="utf-8"?-->
<!-- Generator: Adobe Illustrator 18.1.1, SVG Export Plug-In . SVG Version: 6.00 Build 0)  -->

<svg version="1.1" id="_x32_" xmlns="http://www.w3.org/2000/svg" xmlns:xlink="http://www.w3.org/1999/xlink" x="0px" y="0px" viewBox="0 0 512 512" style="width: 32px; height: 32px; opacity: 1;" xml:space="preserve">
<style type="text/css">
	.st0{fill:#4B4B4B;}
</style>
<g>
	<path class="st0" d="M129.18,417.603c0,19.313,15.649,34.962,34.962,34.962H474.99c19.304,0,34.963-15.649,34.963-34.962v-27.946
		H129.18V417.603z" style="fill: rgb(75, 75, 75);"></path>
	<path class="st0" d="M479.949,59.435H143.092h-11.855c-5.2,0-12.247,0-22.184,0C48.825,59.435,0,108.26,0,168.489
		c0,60.228,48.925,105.641,109.054,109.064c11.634,0.662,21.792-0.542,30.686-3.192c10.229,31.871,29.19,59.826,54.286,80.807
		h255.186C487.568,323.094,512,274.932,512,221.018V91.487C512,73.78,497.646,59.435,479.949,59.435z M131.238,208.791
		c-6.616,3.654-14.094,5.912-22.184,5.912c-25.518,0-46.206-20.688-46.206-46.215c0-25.516,20.688-46.205,46.206-46.205
		c8.09,0,15.568,2.258,22.184,5.902V208.791z" style="fill: rgb(75, 75, 75);"></path>
</g>
</svg>
