<svg xmlns="http://www.w3.org/2000/svg" width="12" height="16" viewBox="0 0 12 16">
  <path id="Icon_awesome-pinterest-p" data-name="Icon awesome-pinterest-p" d="M6.375.457C3.169.457,0,2.65,0,6.2,0,8.455,1.237,9.738,1.988,9.738c.309,0,.488-.885.488-1.135,0-.3-.741-.933-.741-2.173a4.276,4.276,0,0,1,4.388-4.4,3.375,3.375,0,0,1,3.7,3.52c0,1.7-.666,4.9-2.822,4.9a1.4,1.4,0,0,1-1.444-1.4c0-1.212.825-2.385.825-3.635,0-2.122-2.934-1.738-2.934.827a3.851,3.851,0,0,0,.3,1.625c-.431,1.9-1.313,4.741-1.313,6.7,0,.606.084,1.2.141,1.808.106.122.053.109.216.048,1.575-2.212,1.519-2.645,2.231-5.539a2.517,2.517,0,0,0,2.166,1.154C10.509,12.026,12,8.709,12,5.718A5.373,5.373,0,0,0,6.375.457Z" transform="translate(0 -0.457)" fill="#fdfffc"/>
</svg>
