<?xml version="1.0" encoding="UTF-8"?><svg id="_レイヤー_1" xmlns="http://www.w3.org/2000/svg" width="140.935mm" height="55.792mm" viewBox="0 0 399.5 158.152"><path d="m22.792,112.472c1.614-.243,3.287-.305,4.965-.035,3.201.439,6.04,2.53,9.104,3.053,2.802.504,6.015.28,8.687-.618,2.991-1.042,5.414-3.405,8.693-4.358,3.597-1.039,7.139-1.097,10.77-.185,3.308.843,5.811,3.12,8.835,4.058,4.277,1.236,8.97.889,12.953-1.308,2.898-1.545,6.43-2.357,9.708-1.858-3.246.494-6.05,1.669-8.633,3.681-4.154,3.22-9.844,4.296-15.01,3.157-3.282-.671-5.931-2.886-8.955-3.617-4.227-.976-8.631-.42-12.396,1.93-4.435,2.816-10.352,3.453-15.381,1.835-3.292-1.03-5.588-3.444-8.685-4.622-1.454-.569-3.037-.879-4.658-1.112h0Z" style="fill:#231815;"/><path d="m0,125.787c1.609-.154,3.249-.204,4.893.012,3.198.346,6.143,2.059,9.26,2.482,2.961.428,6.177.288,9.078-.359,3.103-.714,5.828-2.633,9.097-3.255,3.445-.699,6.819-.702,10.263,0,3.268.625,5.995,2.538,9.097,3.253,2.901.642,6.117.786,9.077.356,3.116-.422,6.062-2.134,9.26-2.479,1.644-.215,3.284-.164,4.893-.009-1.609.193-3.195.456-4.705.905-3.144.902-5.75,2.908-9.003,3.701-1.654.44-3.349.598-5.022.687-1.674.051-3.387,0-5.097-.33-3.243-.53-6.078-2.324-9.166-2.927-2.862-.524-6.071-.528-8.933-.003-3.089.603-5.923,2.392-9.166,2.925-3.406.581-6.775.441-10.118-.357-3.252-.792-5.859-2.797-9.003-3.699-1.51-.448-3.096-.711-4.705-.902h0Z" style="fill:#231815;"/><path d="m.006,100.279c1.87-.148,3.766-.195,5.665.02,3.722.345,7.215,2.098,10.867,2.525,3.517.438,7.258.31,10.728-.328,3.649-.687,6.959-2.641,10.746-3.237,3.938-.664,7.803-.656,11.736.035,3.782.621,7.082,2.59,10.725,3.3,3.466.655,7.205.81,10.724.391,3.654-.404,7.158-2.134,10.882-2.456,1.901-.202,3.796-.143,5.665.017-1.87.188-3.721.442-5.507.884-3.685.873-6.892,2.92-10.667,3.686-1.911.426-3.853.572-5.777.656-1.925.044-3.881-.008-5.838-.332-3.761-.527-7.156-2.369-10.786-2.972-3.432-.539-7.168-.554-10.603-.035-3.634.581-7.039,2.397-10.803,2.905-3.904.549-7.765.397-11.612-.395-3.77-.788-6.965-2.853-10.644-3.749-1.784-.452-3.634-.717-5.502-.915H.006Z" style="fill:#231815;"/><path d="m82.403,5.639c-25.021,1.091-50.042,1.618-75.065,1.981-.686.035-1.216.65-1.155,1.326.201,17.331.321,38.967.352,56.308,0,0-.012,4.55-.012,4.55-.261,6.666,4.475,12.949,10.931,14.561,2.241.729,6.106.409,8.481.521,0,0,9.1.091,9.1.091,6.067.073,12.134.092,18.201.212l9.1.15c2.473-.034,6.396.29,8.819-.058,5.514-.726,10.438-4.697,12.363-9.949,1.102-2.743,1.043-5.645,1.195-8.601.694-15.072,1.493-30.428,2.351-45.466-.009,15.058-.139,30.425-.312,45.498-.04,2.8.124,6.725-.896,9.384-2.454,7.991-10.691,13.273-18.971,12.72-2.823.039-10.71.182-13.65.225-10.326.183-21.493.219-31.851.348-8.709.278-17.01-6.056-19.042-14.548-.854-2.839-.54-6.728-.612-9.637.046-17.499.128-39.226.368-56.712.114-2.682,2.541-4.942,5.214-4.882,25.031.356,50.06.89,75.09,1.979h0Z" style="fill:#231815;"/><path d="m85.335,72.501c-1.156-17.274-2.083-35.821-2.304-53.227,0,0-.032-2.263-.032-2.263,0,0,2.336-.041,2.336-.041,15.378-.419,28.586,13.248,27.527,28.616-.697,14.153-12.828,28.103-27.527,26.916h0Zm0,0c13.466-1.211,23.338-14.213,23.371-27.039.293-12.703-10.689-23.955-23.371-23.884,0,0,2.304-2.304,2.304-2.304-.202,16.878-1.328,36.326-2.304,53.227h0Z" style="fill:#231815;"/><path d="m160.92,46.225v3.212l-4.19.92,2.104-9.791h4.76l-.25,9.604c-3.352,1.854-7.754,3.181-13.121,3.181-12.039,0-21.711-7.096-21.711-21.694,0-14.8,10.408-21.695,22.145-21.695,4.728,0,8.535,1.058,12.243,3.09l.25,9.694h-4.759l-2.149-9.881,4.191.965v3.452c-2.977-2.682-5.484-3.789-8.304-3.789-6.679,0-12.544,5.435-12.544,18.209s5.629,18.073,12.242,18.073c3.112,0,6.165-1.288,9.096-3.549Z" style="fill:#231815;"/><path d="m183.099,35.812c2.625-.938,6.562-2.062,9.688-2.625v2.25c-2.812.562-6.5,1.75-8.375,2.5-5.625,2.188-6.25,4.562-6.25,6.375,0,3.312,2.188,4.625,5.062,4.625,2.188,0,3.438-.812,7.375-3.625l1.25-.938.875,1.312-1.812,1.812c-3.75,3.75-5.875,5.5-9.688,5.5-4.562,0-8.375-2.625-8.375-7.812,0-3.5,1.875-6.312,10.25-9.375Zm7.188,10.625v-14.25c0-6.125-1.75-7.625-5.875-7.625-1.438,0-3.312.188-5.625,1.125l2.5-1.938-1.625,5.375c-.562,1.812-1.5,2.812-3.188,2.812s-2.688-.938-2.812-2.5c1.188-4.75,5.812-7.688,12.062-7.688,6.438,0,9.562,2.938,9.562,10.812v13.25c0,2.812.875,3.812,2.312,3.812,1.062,0,1.75-.562,2.438-1.375l1.25,1.375c-1.5,2.375-3.188,3.188-5.312,3.188-3.438,0-5.688-2.5-5.688-6.375Z" style="fill:#231815;"/><path d="m213.848,25.812h-5.25v-2.688l7.062-.938-1.812.938c.625-7.188,1.625-11,4.438-14,2.688-2.938,5.875-3.812,8.688-3.812,2.938,0,5.312.938,5.938,3.312-.125,1.562-1.5,2.75-3.75,2.75-1.562,0-2.938-.625-4.438-1.75l-3.062-2.312,5.25-1.25,1.438,1.875c-.688-.375-1.688-.75-2.438-.75-1.875,0-4,1.375-5.188,3.5-1.438,2.5-2.375,6.688-1.875,14.312v14.062c0,4.375.062,8.75.188,13.125h-5.375c.125-4.375.188-8.75.188-13.125v-13.25Zm10.812,24.188v2.188h-16v-2.188l7.062-1.25h1.25l7.688,1.25Zm2.812-27.438v3.25h-11.125v-3.25h11.125Z" style="fill:#231815;"/><path d="m261.909,33.687c0,1.438-.188,2.688-.438,3.5h-23.062v-2.625h14.875c3,0,3.688-1.438,3.688-3.188,0-3.562-3-6.812-6.938-6.812-4,0-8.625,3.375-8.625,12.312,0,7.938,4,12.188,10.25,12.188,4,0,6.5-1.812,8.75-4.438l1.438,1.125c-2.25,4.438-6.25,7.25-11.938,7.25-8.375,0-13.812-5.812-13.812-15.312,0-9.562,6.5-15.938,14.25-15.938,6.438,0,11.562,4.375,11.562,11.938Z" style="fill:#231815;"/><path d="m127.303,128.251l8.965-1.154h2.204l7.594,1.154v4.131h-18.763v-4.131Zm.666-46.406h10.986l.111,5.285h-1.256l-9.841-1.154v-4.131Zm6.756,0h4.396l.582,26.641v23.896h-4.978v-50.537Zm.465,0h13.062l13.851,37.438h-2.561l13.073-37.438h5.075l-17.745,50.537h-5.933l-18.822-50.537Zm32.578,46.406l9.841-1.154h3.537l11.165,1.154v4.131h-24.543v-4.131Zm5.749-18.104l.277-28.302h12.827c-.23,7.88-.23,15.88-.23,23.845v2.848c0,8.033,0,16.033.23,23.845h-13.335c.23-7.88.175-15.88.23-22.235Zm6.415-28.302h12.101v4.131l-10.887,1.154h-1.214v-5.285Z" style="fill:#231815;"/><path d="m209.505,132.382c.154-3.461.23-11.384.23-16.153v-3.615c0-4.23-.076-6.615-.23-9.691l-6.308-.692v-2.692l11.615-4.615,1.153.77-.23,10.384v10.153c0,4.77.077,12.692.23,16.153h-6.461Zm11.846-2.692v2.692h-17.691v-2.692l8.461-1.538h1.538l7.692,1.538Zm-13.769-48.306c0-2.923,2.23-4.846,5.076-4.846s5.077,1.923,5.077,4.846c0,2.847-2.23,4.847-5.077,4.847s-5.076-2-5.076-4.847Z" style="fill:#231815;"/><path d="m247.58,129.537c1.692,0,3.23-.692,5.23-2.154l1.77,2.077c-1.923,2.461-5.077,3.923-8.923,3.923-5.308,0-8.615-2.77-8.615-8.692,0-1.846.077-3.461.077-6.461v-18.307h-6.461v-3.308l9.538-1.23-3.077,2.538,2.308-12.461h4.462l-.616,13.461v24.922c0,4,1.692,5.692,4.308,5.692Zm6.308-33.614v4h-13.691v-4h13.691Z" style="fill:#231815;"/><path d="m277.119,112.229c3.23-1.153,8.076-2.538,11.922-3.23v2.77c-3.461.692-7.999,2.153-10.307,3.076-6.923,2.692-7.692,5.615-7.692,7.847,0,4.076,2.692,5.691,6.23,5.691,2.692,0,4.23-1,9.077-4.461l1.538-1.154,1.077,1.615-2.231,2.231c-4.614,4.615-7.229,6.769-11.922,6.769-5.615,0-10.308-3.23-10.308-9.615,0-4.308,2.308-7.769,12.615-11.538Zm8.846,13.077v-17.538c0-7.538-2.154-9.384-7.23-9.384-1.77,0-4.077.23-6.923,1.384l3.077-2.384-2,6.614c-.692,2.231-1.847,3.462-3.923,3.462s-3.308-1.154-3.462-3.077c1.462-5.846,7.153-9.461,14.846-9.461,7.923,0,11.769,3.615,11.769,13.308v16.307c0,3.461,1.077,4.692,2.846,4.692,1.308,0,2.154-.692,3-1.692l1.539,1.692c-1.847,2.923-3.923,3.923-6.538,3.923-4.231,0-7-3.077-7-7.846Z" style="fill:#231815;"/><path d="m319.887,75.461l1.077.616-.308,10.922v29.229c0,5.385.077,10.769.23,16.153h-6.615c.154-5.385.231-10.769.231-16.153v-33.845l-6.385-.769v-2.692l11.769-3.462Zm7.153,54.229v2.692h-18.922v-2.692l8.692-1.538h1.538l8.691,1.538Zm15.692-33.768l-25.153,25.845v-4.461l20.461-21.384h4.692Zm-3.154,32.229l8.461,1.538v2.692h-10.153l-12.845-20.461,4.307-4.461,15.153,23.691-4.923-3Zm-4.384-27.537l-7-1.77v-2.923h17.846v2.923l-8.538,1.308-2.308.462Z" style="fill:#231815;"/><path d="m389.5,109.614c0,1.77-.23,3.308-.538,4.308h-28.383v-3.23h18.307c3.692,0,4.538-1.77,4.538-3.923,0-4.385-3.692-8.384-8.538-8.384-4.923,0-10.615,4.153-10.615,15.152,0,9.77,4.923,15,12.615,15,4.923,0,7.999-2.23,10.769-5.462l1.77,1.385c-2.77,5.461-7.692,8.923-14.692,8.923-10.307,0-16.999-7.153-16.999-18.846,0-11.769,8-19.614,17.538-19.614,7.923,0,14.229,5.385,14.229,14.691Z" style="fill:#231815;"/><path d="m70.547,57.994v-1.822c0-4.089.02-8.182.096-12.249l3.516-.373v-1.541h-12.816l-7.188,20.585-7.615-20.585h-8.027v3.184h-1.041v24.808l-4.751.612v2.645h12.011v-2.645l-4.073-.62v-12.034l-.216-9.877,9.377,25.176h3.797l8.794-25.044-.106,10.809c-.028,3.245-.015,7.16-.082,11.168l-3.597.422v2.645h15.71v-2.645l-3.693-.382c-.076-4.037-.096-8.122-.096-12.237Z" style="fill:#231815;"/><path d="m37.467,42.009l-.064.297-.363,1.688-.363,1.688-.089.414c-.158.072-.314.17-.473.233-.523.208-1.051.368-1.581.476-.53.107-1.064.163-1.6.163-1.14,0-2.237-.23-3.242-.713s-1.917-1.217-2.688-2.226c-.77-1.009-1.397-2.292-1.832-3.871-.435-1.579-.678-3.455-.678-5.648s.253-4.087.704-5.676c.451-1.59,1.101-2.884,1.894-3.903.793-1.019,1.73-1.763,2.757-2.251,1.026-.489,2.143-.723,3.294-.723.486,0,.959.048,1.426.148.467.101.93.254,1.396.465.091.041.184.112.275.158l.109.499.371,1.703.37,1.703.37,1.703h3.281l-.043-1.671-.043-1.671-.043-1.671-.043-1.671c-.639-.35-1.283-.658-1.939-.923-.656-.265-1.326-.488-2.018-.666-.692-.179-1.405-.314-2.149-.404s-1.519-.136-2.334-.136c-2.023,0-3.988.297-5.799.902-1.81.605-3.466,1.518-4.869,2.749-1.403,1.232-2.553,2.782-3.352,4.663-.799,1.88-1.248,4.09-1.248,6.641,0,2.516.417,4.709,1.172,6.583.755,1.874,1.848,3.429,3.2,4.669,1.352,1.24,2.964,2.166,4.756,2.782s3.765.921,5.84.921c.925,0,1.808-.057,2.649-.163.841-.106,1.639-.26,2.394-.454s1.467-.428,2.134-.694c.667-.266,1.29-.562,1.868-.882l.043-1.655.043-1.655.043-1.656.007-.265h-3.543Z" style="fill:#231815;"/></svg>