<svg xmlns="http://www.w3.org/2000/svg" width="32" height="32" viewBox="0 0 32 32">
  <path id="ico_twitter" d="M28.571,2.25H3.429A3.429,3.429,0,0,0,0,5.679V30.821A3.429,3.429,0,0,0,3.429,34.25H28.571A3.429,3.429,0,0,0,32,30.821V5.679A3.429,3.429,0,0,0,28.571,2.25ZM25.079,13.593c.014.2.014.407.014.607A13.238,13.238,0,0,1,11.764,27.529a13.267,13.267,0,0,1-7.193-2.1,9.869,9.869,0,0,0,1.129.057,9.392,9.392,0,0,0,5.814-2,4.691,4.691,0,0,1-4.379-3.25A5.049,5.049,0,0,0,9.25,20.15a4.685,4.685,0,0,1-3.75-4.6v-.057a4.682,4.682,0,0,0,2.114.593,4.675,4.675,0,0,1-2.086-3.9,4.626,4.626,0,0,1,.636-2.364,13.3,13.3,0,0,0,9.657,4.9,4.695,4.695,0,0,1,7.993-4.279,9.18,9.18,0,0,0,2.971-1.129,4.672,4.672,0,0,1-2.057,2.579,9.323,9.323,0,0,0,2.7-.729A9.861,9.861,0,0,1,25.079,13.593Z" transform="translate(0 -2.25)" fill="#4a5733"/>
</svg>
