<svg xmlns="http://www.w3.org/2000/svg" width="124" height="40" viewBox="0 0 124 40">
  <g id="ico_cafemitake-logo" transform="translate(0 -3.66)">
    <path id="パス_1517" data-name="パス 1517" d="M22.79,110.581a5.171,5.171,0,0,1,1.595-.011c1.028.141,1.94.813,2.924.98a5.853,5.853,0,0,0,2.79-.2c.961-.335,1.739-1.094,2.792-1.4a6.483,6.483,0,0,1,3.459-.059c1.062.271,1.866,1,2.837,1.3a5.474,5.474,0,0,0,4.16-.42,5.156,5.156,0,0,1,3.118-.6,5.792,5.792,0,0,0-2.773,1.182,5.9,5.9,0,0,1-4.821,1.014c-1.054-.215-1.9-.927-2.876-1.162a5.22,5.22,0,0,0-3.981.62,6.012,6.012,0,0,1-4.94.589c-1.057-.331-1.795-1.106-2.789-1.484a6.737,6.737,0,0,0-1.5-.357h0Z" transform="translate(-15.47 -73.637)" fill="#fbfff7"/>
    <path id="パス_1518" data-name="パス 1518" d="M0,124.67a6.951,6.951,0,0,1,1.571,0c1.027.111,1.973.661,2.974.8a8.273,8.273,0,0,0,2.915-.115c1-.229,1.872-.846,2.922-1.045a8.133,8.133,0,0,1,3.3,0c1.05.2,1.925.815,2.922,1.045a8.294,8.294,0,0,0,2.915.114c1-.136,1.947-.685,2.974-.8a6.95,6.95,0,0,1,1.571,0,9.115,9.115,0,0,0-1.511.291c-1.01.29-1.847.934-2.891,1.189a7.871,7.871,0,0,1-1.613.221,7.413,7.413,0,0,1-1.637-.106c-1.042-.17-1.952-.746-2.944-.94a8.207,8.207,0,0,0-2.869,0c-.992.194-1.9.768-2.944.939a8.033,8.033,0,0,1-3.249-.115c-1.044-.254-1.882-.9-2.891-1.188A9.08,9.08,0,0,0,0,124.67H0Z" transform="translate(0 -83.45)" fill="#fbfff7"/>
    <path id="パス_1519" data-name="パス 1519" d="M.005,99.253a9.489,9.489,0,0,1,1.819.006c1.2.111,2.317.674,3.49.811a11.516,11.516,0,0,0,3.445-.105c1.172-.221,2.235-.848,3.451-1.04a10.963,10.963,0,0,1,3.769.011c1.215.2,2.274.832,3.444,1.06a11.531,11.531,0,0,0,3.444.126c1.174-.13,2.3-.685,3.495-.789a9.51,9.51,0,0,1,1.819.005,12.625,12.625,0,0,0-1.769.284c-1.183.28-2.213.938-3.426,1.184a10.624,10.624,0,0,1-1.855.211,10.034,10.034,0,0,1-1.875-.107c-1.208-.169-2.3-.761-3.464-.954a11.439,11.439,0,0,0-3.405-.011c-1.167.187-2.261.77-3.469.933a10.848,10.848,0,0,1-3.729-.127c-1.211-.253-2.237-.916-3.418-1.2A12.614,12.614,0,0,0,0,99.253h0Z" transform="translate(-0.003 -65.852)" fill="#fbfff7"/>
    <path id="パス_1520" data-name="パス 1520" d="M27.639,4.3c-8.036.35-16.071.52-24.108.636a.4.4,0,0,0-.371.426c.065,5.566.1,12.515.113,18.084l0,1.461A4.728,4.728,0,0,0,6.78,29.579a12.422,12.422,0,0,0,2.724.167l2.923.029c1.948.023,3.9.03,5.845.068l2.923.048a26.508,26.508,0,0,0,2.832-.019,5.015,5.015,0,0,0,3.97-3.2,8.378,8.378,0,0,0,.384-2.762c.223-4.84.479-9.772.755-14.6,0,4.836-.045,9.771-.1,14.612a9.678,9.678,0,0,1-.288,3.014,6.023,6.023,0,0,1-6.093,4.085c-.907.013-3.44.058-4.384.072-3.316.059-6.9.07-10.229.112a6.241,6.241,0,0,1-6.115-4.672,12.766,12.766,0,0,1-.2-3.095c.015-5.62.041-12.6.118-18.213A1.682,1.682,0,0,1,3.523,3.66c8.039.114,16.077.286,24.116.636h0Z" transform="translate(-1.174 0)" fill="#fbfff7"/>
    <path id="パス_1521" data-name="パス 1521" d="M83.749,34.8c-.371-5.548-.669-11.5-.74-17.094L83,16.977l.75-.013a8.778,8.778,0,0,1,8.84,9.19c-.224,4.545-4.12,9.025-8.84,8.644h0Zm0,0c4.325-.389,7.5-4.565,7.506-8.684a7.662,7.662,0,0,0-7.506-7.671l.74-.74c-.065,5.42-.426,11.666-.74,17.094Z" transform="translate(-56.595 -9.029)" fill="#fbfff7"/>
    <path id="パス_1522" data-name="パス 1522" d="M138.92,21.608V22.64l-1.346.3.676-3.144h1.529l-.08,3.084a8.649,8.649,0,0,1-4.214,1.022c-3.866,0-6.973-2.279-6.973-6.967,0-4.753,3.343-6.968,7.112-6.968a7.816,7.816,0,0,1,3.932.992l.08,3.113h-1.528l-.69-3.173,1.346.31v1.109A3.862,3.862,0,0,0,136.1,11.1c-2.145,0-4.029,1.745-4.029,5.848s1.808,5.8,3.932,5.8a4.818,4.818,0,0,0,2.921-1.14Z" transform="translate(-87.635 -4.278)" fill="#fbfff7"/>
    <path id="パス_1523" data-name="パス 1523" d="M176.141,26.265a21.888,21.888,0,0,1,3.111-.843v.723a18.18,18.18,0,0,0-2.69.8c-1.807.7-2.007,1.465-2.007,2.047,0,1.064.7,1.485,1.626,1.485.7,0,1.1-.261,2.369-1.164l.4-.3.281.421-.582.582c-1.2,1.2-1.887,1.766-3.111,1.766a2.449,2.449,0,0,1-2.69-2.509c0-1.124.6-2.027,3.292-3.011Zm2.308,3.412V25.1c0-1.967-.562-2.449-1.887-2.449a4.674,4.674,0,0,0-1.807.361l.8-.622-.522,1.726c-.18.582-.482.9-1.024.9a.819.819,0,0,1-.9-.8c.382-1.525,1.867-2.469,3.874-2.469,2.068,0,3.071.944,3.071,3.472v4.255c0,.9.281,1.224.743,1.224a.994.994,0,0,0,.783-.442l.4.442a1.875,1.875,0,0,1-1.706,1.024,1.826,1.826,0,0,1-1.827-2.047Z" transform="translate(-117.86 -12.279)" fill="#fbfff7"/>
    <path id="パス_1524" data-name="パス 1524" d="M210.284,11.9H208.6v-.863l2.268-.3-.582.3c.2-2.308.522-3.533,1.425-4.5a3.658,3.658,0,0,1,2.79-1.224c.944,0,1.706.3,1.907,1.064-.04.5-.482.883-1.2.883a2.336,2.336,0,0,1-1.425-.562l-.983-.743,1.686-.4.462.6a1.871,1.871,0,0,0-.783-.241,2.074,2.074,0,0,0-1.666,1.124c-.462.8-.763,2.148-.6,4.6v4.516q0,2.108.06,4.215h-1.726q.06-2.108.06-4.215V11.9Zm3.472,7.768v.7h-5.139v-.7l2.268-.4h.4Zm.9-8.812V11.9h-3.573V10.852Z" transform="translate(-142.228 -1.122)" fill="#fbfff7"/>
    <path id="パス_1525" data-name="パス 1525" d="M244.387,25.583a4.044,4.044,0,0,1-.141,1.124H236.84v-.843h4.777c.963,0,1.184-.462,1.184-1.024a2.228,2.228,0,0,0-2.228-2.188c-1.285,0-2.77,1.084-2.77,3.954,0,2.549,1.285,3.914,3.292,3.914A3.475,3.475,0,0,0,243.9,29.1l.462.361a4.076,4.076,0,0,1-3.834,2.328c-2.69,0-4.436-1.867-4.436-4.918,0-3.071,2.088-5.119,4.576-5.119A3.582,3.582,0,0,1,244.387,25.583Z" transform="translate(-160.981 -12.28)" fill="#fbfff7"/>
    <path id="パス_1526" data-name="パス 1526" d="M127.3,96.749l2.879-.371h.708l2.439.371v1.327H127.3Zm.214-14.9h3.528l.036,1.7h-.4l-3.161-.371V81.845Zm2.17,0H131.1l.187,8.556v7.674h-1.6V81.845Zm.149,0h4.195l4.448,12.023h-.822l4.2-12.023h1.63l-5.7,16.23h-1.905l-6.045-16.23Zm10.463,14.9,3.161-.371H144.6l3.586.371v1.327H140.3Zm1.846-5.814.089-9.089h4.119c-.074,2.531-.074,5.1-.074,7.658v.915c0,2.58,0,5.149.074,7.658h-4.283c.074-2.531.056-5.1.074-7.141Zm2.06-9.089h3.886v1.327l-3.5.371h-.39Z" transform="translate(-86.847 -54.737)" fill="#fbfff7"/>
    <path id="パス_1527" data-name="パス 1527" d="M205.223,94.473c.049-1.112.074-3.656.074-5.188V88.124c0-1.358-.024-2.124-.074-3.112L203.2,84.79v-.865l3.73-1.482.37.247-.074,3.335v3.261c0,1.532.025,4.076.074,5.188h-2.075Zm3.8-.865v.865h-5.682v-.865l2.717-.494h.494Zm-4.422-15.514a1.632,1.632,0,1,1,1.63,1.557A1.538,1.538,0,0,1,204.605,78.094Z" transform="translate(-138.536 -51.134)" fill="#fbfff7"/>
    <path id="パス_1528" data-name="パス 1528" d="M236.093,99.617a2.816,2.816,0,0,0,1.68-.692l.568.667a3.532,3.532,0,0,1-2.866,1.26,2.5,2.5,0,0,1-2.767-2.792c0-.593.025-1.112.025-2.075V90.106h-2.075V89.044l3.063-.4-.988.815.741-4h1.433l-.2,4.323v8c0,1.285.543,1.828,1.384,1.828Zm2.026-10.8v1.285h-4.4V88.822Z" transform="translate(-157.269 -57.192)" fill="#fbfff7"/>
    <path id="パス_1529" data-name="パス 1529" d="M268.555,100.48a26.964,26.964,0,0,1,3.829-1.037v.89a22.389,22.389,0,0,0-3.31.988c-2.223.865-2.47,1.8-2.47,2.52,0,1.309.865,1.828,2,1.828.865,0,1.358-.321,2.915-1.433l.494-.371.346.519-.716.717c-1.482,1.482-2.322,2.174-3.829,2.174a3.014,3.014,0,0,1-3.311-3.088c0-1.384.741-2.5,4.051-3.706Zm2.841,4.2V99.048c0-2.421-.692-3.014-2.322-3.014a5.745,5.745,0,0,0-2.223.444l.988-.766-.642,2.124c-.222.716-.593,1.112-1.26,1.112a1.009,1.009,0,0,1-1.112-.988c.47-1.877,2.3-3.038,4.768-3.038,2.544,0,3.78,1.161,3.78,4.274v5.237c0,1.112.346,1.507.914,1.507a1.222,1.222,0,0,0,.963-.543l.494.543a2.307,2.307,0,0,1-2.1,1.26,2.247,2.247,0,0,1-2.248-2.52Z" transform="translate(-180.37 -63.614)" fill="#fbfff7"/>
    <path id="パス_1530" data-name="パス 1530" d="M311.9,75.46l.346.2-.1,3.508v9.387q0,2.594.074,5.188h-2.124q.074-2.594.074-5.188V77.683l-2.051-.247v-.865l3.78-1.112Zm2.3,17.416v.865h-6.077v-.865l2.791-.494h.494l2.791.494Zm5.04-10.845-8.078,8.3V88.9l6.571-6.868Zm-1.013,10.351,2.717.494v.865h-3.261l-4.125-6.571,1.383-1.433,4.866,7.609-1.581-.963Zm-1.408-8.844-2.248-.568v-.939H320.3v.939l-2.742.42Z" transform="translate(-210.254 -50.403)" fill="#fbfff7"/>
    <path id="パス_1531" data-name="パス 1531" d="M367.936,99.641a4.978,4.978,0,0,1-.173,1.384h-9.115V99.987h5.879c1.186,0,1.457-.568,1.457-1.26a2.741,2.741,0,0,0-2.742-2.693c-1.581,0-3.409,1.334-3.409,4.866,0,3.138,1.581,4.817,4.051,4.817a4.277,4.277,0,0,0,3.459-1.754l.568.445a5.018,5.018,0,0,1-4.718,2.866c-3.31,0-5.459-2.3-5.459-6.053,0-3.78,2.569-6.3,5.632-6.3a4.409,4.409,0,0,1,4.57,4.718Z" transform="translate(-243.936 -63.615)" fill="#fbfff7"/>
    <path id="パス_1532" data-name="パス 1532" d="M44.869,47.143v-.585c0-1.313.006-2.628.031-3.934l1.129-.12v-.495H41.913L39.6,48.62l-2.446-6.611H34.581v1.023h-.334V51l-1.526.2v.849h3.857V51.2L35.27,51V47.131L35.2,43.959l3.011,8.085h1.219L42.256,44l-.034,3.471c-.009,1.042,0,2.3-.026,3.587l-1.155.136v.849h5.045V51.2L44.9,51.073c-.024-1.3-.031-2.608-.031-3.93Z" transform="translate(-22.212 -26.68)" fill="#fbfff7"/>
    <path id="パス_1533" data-name="パス 1533" d="M23.479,26.745l-.021.1-.117.542-.117.542-.029.133c-.051.023-.1.055-.152.075a2.991,2.991,0,0,1-.508.153,2.593,2.593,0,0,1-.514.052,2.323,2.323,0,0,1-1.9-.944,3.61,3.61,0,0,1-.588-1.243,6.852,6.852,0,0,1-.218-1.814,6.708,6.708,0,0,1,.226-1.823,3.637,3.637,0,0,1,.608-1.253A2.4,2.4,0,0,1,22.09,20.3a2.176,2.176,0,0,1,.458.048A2.22,2.22,0,0,1,23,20.5c.029.013.059.036.088.051l.035.16.119.547.119.547.119.547H24.53l-.014-.537L24.5,21.28l-.014-.537-.014-.537a5.878,5.878,0,0,0-.623-.3A5.154,5.154,0,0,0,23.2,19.7a5.278,5.278,0,0,0-.69-.13,6.229,6.229,0,0,0-.75-.044,5.885,5.885,0,0,0-1.862.29,4.536,4.536,0,0,0-1.564.883,4.112,4.112,0,0,0-1.077,1.5,5.414,5.414,0,0,0-.4,2.133,5.627,5.627,0,0,0,.376,2.114,4.08,4.08,0,0,0,1.028,1.5,4.317,4.317,0,0,0,1.527.893,5.77,5.77,0,0,0,1.876.3,6.8,6.8,0,0,0,.851-.052,6.206,6.206,0,0,0,.769-.146,5.637,5.637,0,0,0,.685-.223,5.264,5.264,0,0,0,.6-.283l.014-.532.014-.532.014-.532,0-.085H23.479Z" transform="translate(-11.446 -10.769)" fill="#fbfff7"/>
  </g>
</svg>
