<svg xmlns="http://www.w3.org/2000/svg" width="18" height="14" viewBox="0 0 18 14">
  <path id="ico_pkz-home" d="M8.76,5.885,3,10.631v5.122a.5.5,0,0,0,.5.5L7,16.244a.5.5,0,0,0,.5-.5V12.753a.5.5,0,0,1,.5-.5h2a.5.5,0,0,1,.5.5v2.989a.5.5,0,0,0,.5.5l3.5.01a.5.5,0,0,0,.5-.5V10.628L9.238,5.885A.381.381,0,0,0,8.76,5.885Zm9.1,3.226L15.248,6.957V2.629a.375.375,0,0,0-.375-.375h-1.75a.375.375,0,0,0-.375.375V4.9l-2.8-2.3a1.5,1.5,0,0,0-1.906,0L.135,9.111a.375.375,0,0,0-.05.528l.8.969a.375.375,0,0,0,.528.051L8.76,4.6a.381.381,0,0,1,.478,0l7.35,6.055a.375.375,0,0,0,.528-.05l.8-.969a.375.375,0,0,0-.053-.529Z" transform="translate(0.001 -2.254)" fill="#4a5733"/>
</svg>
