<svg xmlns="http://www.w3.org/2000/svg" width="12" height="14" viewBox="0 0 12 14">
  <path id="Icon_metro-file-pdf" data-name="Icon metro-file-pdf" d="M14.039,5.172a1.818,1.818,0,0,1,.375.594,1.8,1.8,0,0,1,.156.688v9a.747.747,0,0,1-.75.75H3.321a.747.747,0,0,1-.75-.75V2.953a.747.747,0,0,1,.75-.75h7a1.8,1.8,0,0,1,.688.156,1.818,1.818,0,0,1,.594.375ZM10.571,3.266V6.2h2.937a.854.854,0,0,0-.172-.32L10.891,3.438a.853.853,0,0,0-.32-.172Zm3,11.938v-8h-3.25a.747.747,0,0,1-.75-.75V3.2h-6v12h10ZM9.555,10.571a5.945,5.945,0,0,0,.656.438,7.752,7.752,0,0,1,.914-.055q1.148,0,1.383.383a.378.378,0,0,1,.016.406.023.023,0,0,1-.008.016l-.016.016v.008q-.047.3-.555.3a3.223,3.223,0,0,1-.9-.156,5.7,5.7,0,0,1-1.016-.414,14.068,14.068,0,0,0-3.063.648Q5.774,14.2,5.079,14.2a.454.454,0,0,1-.219-.055l-.187-.094-.047-.039a.323.323,0,0,1-.047-.281,1.7,1.7,0,0,1,.438-.715,3.776,3.776,0,0,1,1.031-.754.114.114,0,0,1,.18.047.045.045,0,0,1,.016.031q.406-.664.836-1.539a11.924,11.924,0,0,0,.813-2.047,6.315,6.315,0,0,1-.238-1.246,3.038,3.038,0,0,1,.051-1q.086-.312.328-.312H8.2a.329.329,0,0,1,.273.117.624.624,0,0,1,.07.531.169.169,0,0,1-.031.062.2.2,0,0,1,.008.062v.234a10.23,10.23,0,0,1-.109,1.5,3.953,3.953,0,0,0,1.141,1.859Zm-4.5,3.211a3.45,3.45,0,0,0,1.07-1.234,4.454,4.454,0,0,0-.684.656A2.6,2.6,0,0,0,5.055,13.782ZM8.164,6.594a2.323,2.323,0,0,0-.016,1.031q.008-.055.055-.344,0-.023.055-.336a.176.176,0,0,1,.031-.062.023.023,0,0,1-.008-.016.016.016,0,0,0,0-.012.016.016,0,0,1,0-.012.45.45,0,0,0-.1-.281.023.023,0,0,1-.008.016v.016ZM7.2,11.758a11.459,11.459,0,0,1,2.219-.633,1.179,1.179,0,0,1-.1-.074,1.4,1.4,0,0,1-.125-.105A4.138,4.138,0,0,1,8.2,9.571a10.44,10.44,0,0,1-.648,1.539q-.234.437-.352.648Zm5.047-.125a1.87,1.87,0,0,0-1.094-.187,2.955,2.955,0,0,0,.969.219.758.758,0,0,0,.141-.008q0-.008-.016-.023Z" transform="translate(-2.571 -2.204)"/>
</svg>
