<svg xmlns="http://www.w3.org/2000/svg" width="32" height="32" viewBox="0 0 32 32">
  <path id="ico_line" d="M19.436,14.55v5.079a.226.226,0,0,1-.229.229h-.814a.236.236,0,0,1-.186-.093l-2.329-3.143v3.014a.226.226,0,0,1-.229.229h-.814a.226.226,0,0,1-.229-.229V14.557a.226.226,0,0,1,.229-.229h.807a.215.215,0,0,1,.186.1l2.329,3.143V14.557a.226.226,0,0,1,.229-.229H19.2a.226.226,0,0,1,.236.221Zm-5.857-.229h-.814a.226.226,0,0,0-.229.229v5.079a.226.226,0,0,0,.229.229h.814a.226.226,0,0,0,.229-.229V14.55a.23.23,0,0,0-.229-.229Zm-1.964,4.257H9.393V14.55a.226.226,0,0,0-.229-.229H8.35a.226.226,0,0,0-.229.229v5.079a.21.21,0,0,0,.064.157.241.241,0,0,0,.157.064h3.264a.226.226,0,0,0,.229-.229v-.814a.229.229,0,0,0-.221-.229Zm12.107-4.257H20.457a.23.23,0,0,0-.229.229v5.079a.23.23,0,0,0,.229.229h3.264a.226.226,0,0,0,.229-.229v-.814a.226.226,0,0,0-.229-.229H21.5v-.857h2.221a.226.226,0,0,0,.229-.229v-.821a.226.226,0,0,0-.229-.229H21.5v-.857h2.221a.226.226,0,0,0,.229-.229V14.55A.24.24,0,0,0,23.721,14.321ZM32,8.086V28.464a5.818,5.818,0,0,1-5.836,5.786H5.786A5.823,5.823,0,0,1,0,28.414V8.036A5.823,5.823,0,0,1,5.836,2.25H26.214A5.818,5.818,0,0,1,32,8.086Zm-4.4,8.757c0-5.214-5.229-9.457-11.65-9.457S4.3,11.629,4.3,16.843c0,4.671,4.143,8.586,9.743,9.329,1.364.293,1.207.793.9,2.629-.05.293-.236,1.15,1.007.629a37.65,37.65,0,0,0,9.157-6.764A8.439,8.439,0,0,0,27.6,16.843Z" transform="translate(0 -2.25)" fill="#4a5733"/>
</svg>
