<svg xmlns="http://www.w3.org/2000/svg" width="17" height="16" viewBox="0 0 17 16">
  <path id="Icon_simple-line" data-name="Icon simple-line" d="M13.717,7.362a.441.441,0,1,1,0,.883H12.474v.788h1.243a.441.441,0,1,1,0,.881h-1.69a.444.444,0,0,1-.444-.44V6.133a.445.445,0,0,1,.446-.441h1.69a.441.441,0,1,1,0,.882H12.474v.788h1.243ZM10.986,9.473a.441.441,0,0,1-.306.417.463.463,0,0,1-.141.022.44.44,0,0,1-.361-.175L8.448,7.415V9.473a.445.445,0,0,1-.89,0V6.133a.439.439,0,0,1,.3-.417A.416.416,0,0,1,8,5.694a.46.46,0,0,1,.351.178L10.094,8.2V6.133a.446.446,0,0,1,.892,0v3.34Zm-4.067,0a.446.446,0,0,1-.891,0V6.133a.446.446,0,0,1,.891,0Zm-1.747.44H3.483a.446.446,0,0,1-.446-.44V6.133a.446.446,0,0,1,.893,0v2.9H5.173a.441.441,0,1,1,0,.881M17,7.678c0-3.76-3.814-6.82-8.5-6.82S0,3.918,0,7.678c0,3.368,3.025,6.19,7.108,6.726.277.057.654.181.749.413a1.69,1.69,0,0,1,.027.756l-.116.714c-.032.211-.17.83.743.452A27.39,27.39,0,0,0,15.2,11.855,6,6,0,0,0,17,7.678" transform="translate(0 -0.858)" fill="#fdfffc"/>
</svg>
