<!--?xml version="1.0" encoding="utf-8"?-->
<!-- Generator: Adobe Illustrator 18.1.1, SVG Export Plug-In . SVG Version: 6.00 Build 0)  -->

<svg version="1.1" id="_x32_" xmlns="http://www.w3.org/2000/svg" xmlns:xlink="http://www.w3.org/1999/xlink" x="0px" y="0px" viewBox="0 0 512 512" style="width: 32px; height: 32px; opacity: 1;" xml:space="preserve">
<style type="text/css">
	.st0{fill:#4B4B4B;}
</style>
<g>
	<polygon class="st0" points="9.574,355.199 9.574,405.524 502.426,254.027 502.426,203.71 	" style="fill: rgb(75, 75, 75);"></polygon>
	<path class="st0" d="M9.574,486.118c0,8.212,3.898,15.934,10.502,20.812c6.613,4.885,15.138,6.34,22.997,3.929L484.146,375.28
		c10.864-3.343,18.28-13.387,18.28-24.75v-32.808L9.574,469.228V486.118z" style="fill: rgb(75, 75, 75);"></path>
	<path class="st0" d="M139.256,401.788c3.158-17.356-14.198-25.246-14.198-25.246l-33.13,42.603
		C106.126,430.176,136.098,419.144,139.256,401.788z" style="fill: rgb(75, 75, 75);"></path>
	<path class="st0" d="M236.667,374.395c3.166-17.356-14.198-25.246-14.198-25.246l-33.13,42.587
		C203.538,402.776,233.51,391.736,236.667,374.395z" style="fill: rgb(75, 75, 75);"></path>
	<path class="st0" d="M334.087,346.979c3.158-17.34-14.198-25.231-14.198-25.231l-33.13,42.596
		C300.957,375.384,330.929,364.344,334.087,346.979z" style="fill: rgb(75, 75, 75);"></path>
	<path class="st0" d="M431.499,319.595c3.157-17.356-14.198-25.247-14.198-25.247l-33.13,42.595
		C398.369,347.984,428.341,336.943,431.499,319.595z" style="fill: rgb(75, 75, 75);"></path>
	<path class="st0" d="M25.203,320.736l468.586-144.041c4.926-1.51,8.357-5.986,8.525-11.137c0.169-5.159-2.949-9.852-7.77-11.691
		l-113.579-43.326c0,0.104,0.008,0.208,0.008,0.313c0,60.94-34.142,91.844-101.478,91.844c-57.059,0-90.268-22.202-99.083-66.066
		L13.199,300.568c-3.978,3.889-4.773,10.012-1.921,14.801C14.123,320.157,19.884,322.376,25.203,320.736z" style="fill: rgb(75, 75, 75);"></path>
	<path class="st0" d="M279.495,178.335c36.151,0,77.123-7.224,77.123-67.48C356.618,50.606,309.981,0,279.495,0
		c-30.478,0-77.115,50.606-77.115,110.854C202.38,171.111,243.345,178.335,279.495,178.335z" style="fill: rgb(75, 75, 75);"></path>
</g>
</svg>
